<?xml version="1.0" standalone="no"?>
<!DOCTYPE svg PUBLIC "-//W3C//DTD SVG 20010904//EN"
 "http://www.w3.org/TR/2001/REC-SVG-20010904/DTD/svg10.dtd">
<svg version="1.0" xmlns="http://www.w3.org/2000/svg"
 width="40.000000pt" height="40.000000pt" viewBox="0 0 40.000000 40.000000"
 preserveAspectRatio="xMidYMid meet">

<g transform="translate(0.000000,40.000000) scale(0.100000,-0.100000)"
fill="#000000" stroke="none">
<path d="M34 377 l-29 -25 -3 -145 c-3 -141 -3 -145 21 -173 l25 -29 145 -3
c141 -3 145 -3 173 21 l29 25 3 145 c3 141 3 145 -21 173 l-25 29 -145 3
c-141 3 -145 3 -173 -21z m237 -106 c64 -65 20 -171 -71 -171 -58 0 -100 42
-100 100 0 91 106 135 171 71z"/>
<path d="M157 258 c-38 -34 -44 -69 -15 -101 34 -38 69 -44 101 -15 38 34 44
69 15 101 -34 38 -69 44 -101 15z m73 -50 c16 -3 15 -7 -11 -38 l-29 -34 0 27
c0 21 -5 27 -20 27 -20 0 -19 2 7 35 28 35 28 35 31 11 2 -15 11 -26 22 -28z"/>
</g>
</svg>
